<svg id="Layer_1" data-name="Layer 1" xmlns="http://www.w3.org/2000/svg" viewBox="0 0 652 124.8"><defs><style>.cls-1{fill:#18a0fb;}.cls-2{fill:#142456;}</style></defs><path class="cls-1" d="M-.1,8q0-3.39,1.7-4.88a9,9,0,0,1,4.13-2Q7.43.74,11.88.37T24.59,0q17,0,25.22,6.67t8.27,17.81a26.64,26.64,0,0,1-1.75,9.69A19.41,19.41,0,0,1,50.76,42a27,27,0,0,1-10,5.14A52.16,52.16,0,0,1,25.86,49c-1.48,0-3-.05-4.5-.16s-2.91-.21-4.19-.31-2.36-.23-3.28-.37a15,15,0,0,0-1.7-.22V73.75H-.1ZM12.19,37.19l4.14.59a65.89,65.89,0,0,0,8.68.47,37.82,37.82,0,0,0,9.75-1.06,15.87,15.87,0,0,0,6.2-3,10.73,10.73,0,0,0,3.24-4.39,15,15,0,0,0,.95-5.35,15.7,15.7,0,0,0-.85-5.14,9.79,9.79,0,0,0-3.18-4.4,17.65,17.65,0,0,0-6.41-3.07A38.73,38.73,0,0,0,24.27,10.7q-5.09,0-8.16.21a29.88,29.88,0,0,0-3.92.43Z"/><path class="cls-1" d="M109.47,73.54c-.71.14-1.82.29-3.34.48s-3.3.35-5.35.52-4.35.34-6.89.48-5.19.21-8,.21A52.4,52.4,0,0,1,72.43,73.8,23,23,0,0,1,64.17,70,12.39,12.39,0,0,1,60,64.48a19,19,0,0,1-1.11-6.41,20.15,20.15,0,0,1,1.33-7.63,12.6,12.6,0,0,1,4.34-5.51,21.07,21.07,0,0,1,7.9-3.34,54.2,54.2,0,0,1,11.86-1.11q4,0,7.63.26c2.4.18,4.21.34,5.41.48a13.77,13.77,0,0,0-1.22-6.15,9.54,9.54,0,0,0-3.34-3.81,13.7,13.7,0,0,0-5.09-1.91,37.64,37.64,0,0,0-6.56-.53,28.07,28.07,0,0,0-9.7,1.38,19.18,19.18,0,0,0-4.82,2.33,12.26,12.26,0,0,1-1.75-2,5.85,5.85,0,0,1-1.11-3.61A5.93,5.93,0,0,1,64.59,24a6.92,6.92,0,0,1,2.81-2.54,17.9,17.9,0,0,1,5.4-1.75,47.28,47.28,0,0,1,8.59-.64,49.61,49.61,0,0,1,11.39,1.22,25,25,0,0,1,8.85,3.87,17.91,17.91,0,0,1,5.77,7,24.26,24.26,0,0,1,2.07,10.49ZM97.49,50c-.7-.14-2-.35-4-.63A64.57,64.57,0,0,0,84.78,49q-7.22,0-10.49,2.18T71,58a8.71,8.71,0,0,0,.69,3.5,6.13,6.13,0,0,0,2.39,2.7,13.06,13.06,0,0,0,4.61,1.7,38.53,38.53,0,0,0,7.25.58,64.87,64.87,0,0,0,7.74-.37c1.91-.25,3.18-.44,3.81-.58Z"/><path class="cls-1" d="M117.62,26.17a5.14,5.14,0,0,1,1.7-4.24A7.23,7.23,0,0,1,124,20.56a12.59,12.59,0,0,1,3.55.47c1.1.32,1.82.55,2.18.69V50c0,4.18,1.11,7.49,3.33,10s5.67,3.71,10.33,3.71q6.47,0,10.18-3.76t3.7-11.07V26.17a5.14,5.14,0,0,1,1.7-4.24,7.23,7.23,0,0,1,4.66-1.37,12.59,12.59,0,0,1,3.55.47c1.1.32,1.82.55,2.17.69V68.13a35.8,35.8,0,0,1-2,12.77A21.55,21.55,0,0,1,152.7,94.46,40.41,40.41,0,0,1,141.15,96a60.43,60.43,0,0,1-8-.48q-3.6-.47-6.41-1.11c-1.87-.42-3.41-.83-4.61-1.22a26.93,26.93,0,0,1-2.54-.9q.84-2.22,1.59-4.5c.49-1.52,1-3,1.48-4.5.49.21,1.27.49,2.33.84a34.85,34.85,0,0,0,3.82,1c1.48.32,3.16.58,5,.79a53.69,53.69,0,0,0,6,.33,28,28,0,0,0,7.41-.91,12.61,12.61,0,0,0,5.57-3.12,14.4,14.4,0,0,0,3.49-5.88,29.2,29.2,0,0,0,1.22-9.17A14.43,14.43,0,0,1,151,72.11,25.87,25.87,0,0,1,141,74a30.11,30.11,0,0,1-9.43-1.43,20.86,20.86,0,0,1-7.41-4.13,18.64,18.64,0,0,1-4.83-6.73,23.08,23.08,0,0,1-1.75-9.22Z"/><path class="cls-2" d="M177.81,11.13a5.14,5.14,0,0,1,1.7-4.3,7.4,7.4,0,0,1,4.66-1.32,12.64,12.64,0,0,1,3.55.48c1.1.31,1.82.54,2.17.68V20.56h15.37c2.33,0,4,.47,4.92,1.43a5.64,5.64,0,0,1,1.44,4.18,10.26,10.26,0,0,1-.53,3.34,22,22,0,0,1-.85,2.17H189.89V55.31a11.48,11.48,0,0,0,.75,4.5,6.93,6.93,0,0,0,2.06,2.81,7.85,7.85,0,0,0,3.07,1.49,15.67,15.67,0,0,0,3.66.42,16.91,16.91,0,0,0,5.72-1,16.61,16.61,0,0,0,3.82-1.8l4.87,8c-.57.42-1.36,1-2.38,1.59a22.2,22.2,0,0,1-3.77,1.8,34,34,0,0,1-5,1.43,29.07,29.07,0,0,1-6,.58q-9.31,0-14.09-4.82t-4.77-12.66Z"/><path class="cls-2" d="M242.87,19.07a31,31,0,0,1,11.5,2.12,28.26,28.26,0,0,1,9.27,5.88,27.38,27.38,0,0,1,6.15,8.9A27.93,27.93,0,0,1,272,47.15a27.65,27.65,0,0,1-2.22,11.08,27.28,27.28,0,0,1-6.15,8.9,28.88,28.88,0,0,1-9.27,5.93,31.53,31.53,0,0,1-23,0,29,29,0,0,1-9.28-5.93,27.1,27.1,0,0,1-6.14-8.9,27.49,27.49,0,0,1-2.23-11.08A27.76,27.76,0,0,1,216,36a27.2,27.2,0,0,1,6.14-8.9,28.41,28.41,0,0,1,9.28-5.88A30.92,30.92,0,0,1,242.87,19.07Zm0,45.46a16.77,16.77,0,0,0,6.68-1.32,15.14,15.14,0,0,0,5.24-3.71A17.55,17.55,0,0,0,258.18,54a18.49,18.49,0,0,0,1.22-6.84,19.37,19.37,0,0,0-1.22-6.94,16.61,16.61,0,0,0-3.39-5.56A15.56,15.56,0,0,0,249.55,31a17.69,17.69,0,0,0-13.41,0A15.75,15.75,0,0,0,231,34.65a16.61,16.61,0,0,0-3.39,5.56,19.59,19.59,0,0,0-1.22,6.94A18.7,18.7,0,0,0,227.56,54,17.55,17.55,0,0,0,231,59.5a15.32,15.32,0,0,0,5.19,3.71A16.66,16.66,0,0,0,242.87,64.53Z"/><path class="cls-2" d="M277.94,39.52a20.5,20.5,0,0,1,1.81-8.9,18,18,0,0,1,4.92-6.36A21.93,21.93,0,0,1,292,20.4a30.53,30.53,0,0,1,9.22-1.33A27.42,27.42,0,0,1,313,21.51a19.59,19.59,0,0,1,8.27,7.2,19.63,19.63,0,0,1,8.15-7.2A26.5,26.5,0,0,1,341,19.07a31.56,31.56,0,0,1,9.12,1.28,20.45,20.45,0,0,1,7.31,3.81,18.17,18.17,0,0,1,4.87,6.36,20.64,20.64,0,0,1,1.8,8.9V73.75H352V43.55c0-4.88-1.09-8.35-3.28-10.44S343.57,30,339.83,30a12.61,12.61,0,0,0-9.06,3.49c-2.44,2.34-3.66,6.11-3.66,11.34V73.75H315V44.82c0-5.23-1.21-9-3.65-11.34a13.78,13.78,0,0,0-18-.32Q290,36.36,290,43.65v30.1H277.94Z"/><path class="cls-2" d="M399.17,19.07a31,31,0,0,1,11.49,2.12,28.41,28.41,0,0,1,9.28,5.88,27.2,27.2,0,0,1,6.14,8.9,27.76,27.76,0,0,1,2.23,11.18,27.49,27.49,0,0,1-2.23,11.08,27.1,27.1,0,0,1-6.14,8.9,29,29,0,0,1-9.28,5.93,31.53,31.53,0,0,1-23,0,28.88,28.88,0,0,1-9.27-5.93,27.13,27.13,0,0,1-6.15-8.9A27.65,27.65,0,0,1,370,47.15,27.93,27.93,0,0,1,372.25,36a27.23,27.23,0,0,1,6.15-8.9,28.26,28.26,0,0,1,9.27-5.88A31,31,0,0,1,399.17,19.07Zm0,45.46a16.72,16.72,0,0,0,6.67-1.32,15.18,15.18,0,0,0,5.25-3.71A17.73,17.73,0,0,0,414.48,54a18.7,18.7,0,0,0,1.22-6.84,19.59,19.59,0,0,0-1.22-6.94,16.78,16.78,0,0,0-3.39-5.56A15.6,15.6,0,0,0,405.84,31a17.66,17.66,0,0,0-13.4,0,15.55,15.55,0,0,0-5.19,3.66,16.61,16.61,0,0,0-3.39,5.56,19.37,19.37,0,0,0-1.22,6.94A18.49,18.49,0,0,0,383.86,54a17.55,17.55,0,0,0,3.39,5.51,15.13,15.13,0,0,0,5.19,3.71A16.6,16.6,0,0,0,399.17,64.53Z"/><path class="cls-2" d="M434.24,39.52q0-9.75,6-15.1t16.58-5.35a27,27,0,0,1,10.86,1.86q4.18,1.84,4.19,5.67a6.76,6.76,0,0,1-1,3.49,7.1,7.1,0,0,1-1.64,2.12,30.24,30.24,0,0,0-4.45-1.59,22.65,22.65,0,0,0-6-.74q-12.41,0-12.4,13.14V73.75H434.24Z"/><path class="cls-2" d="M472,39.52q0-9.75,6-15.1t16.58-5.35a27,27,0,0,1,10.86,1.86q4.19,1.84,4.19,5.67a6.76,6.76,0,0,1-1,3.49,7.1,7.1,0,0,1-1.64,2.12,30.24,30.24,0,0,0-4.45-1.59,22.65,22.65,0,0,0-6-.74Q484,29.88,484,43V73.75H472Z"/><path class="cls-2" d="M537.77,19.07a31,31,0,0,1,11.49,2.12,28.26,28.26,0,0,1,9.27,5.88,27.08,27.08,0,0,1,6.15,8.9,28.89,28.89,0,0,1,0,22.26,27,27,0,0,1-6.15,8.9,28.88,28.88,0,0,1-9.27,5.93,31.53,31.53,0,0,1-23,0A28.88,28.88,0,0,1,517,67.13a27,27,0,0,1-6.15-8.9,28.89,28.89,0,0,1,0-22.26,27.08,27.08,0,0,1,6.15-8.9,28.26,28.26,0,0,1,9.27-5.88A31,31,0,0,1,537.77,19.07Zm0,45.46a16.72,16.72,0,0,0,6.67-1.32,15.18,15.18,0,0,0,5.25-3.71A17.71,17.71,0,0,0,553.07,54a18.49,18.49,0,0,0,1.22-6.84,19.37,19.37,0,0,0-1.22-6.94,16.75,16.75,0,0,0-3.38-5.56A15.6,15.6,0,0,0,544.44,31,17.66,17.66,0,0,0,531,31a15.69,15.69,0,0,0-5.2,3.66,16.78,16.78,0,0,0-3.39,5.56,19.59,19.59,0,0,0-1.22,6.94A18.7,18.7,0,0,0,522.45,54a17.73,17.73,0,0,0,3.39,5.51,15.27,15.27,0,0,0,5.2,3.71A16.6,16.6,0,0,0,537.77,64.53Z"/><path class="cls-2" d="M584.81,73.75q-5.19-12.18-8.53-20.66t-5.3-14c-1.31-3.71-2.22-6.57-2.75-8.59a19.72,19.72,0,0,1-.8-4.29,5.82,5.82,0,0,1,1.48-3.92,5.75,5.75,0,0,1,4.56-1.69,11.66,11.66,0,0,1,5.4,1.06q1.27,4.66,2.87,9.9T585,42q1.69,5.19,3.34,9.91t2.92,8.42c.77-2.19,1.6-4.69,2.49-7.52s1.8-5.74,2.75-8.74,1.89-6,2.81-9.12,1.77-6,2.54-8.74A9.34,9.34,0,0,1,604.26,22c1-1,2.66-1.43,4.92-1.43a11.7,11.7,0,0,1,3.82.58c1.13.39,1.84.65,2.12.79q1.38,4.77,3,10t3.18,10.33q1.59,5.09,3.13,9.75c1,3.1,2,5.86,2.81,8.26q2.74-7.3,5.66-16t5.36-17.38a11.13,11.13,0,0,1,2.49-4.82,6.42,6.42,0,0,1,4.71-1.53,9.87,9.87,0,0,1,4.66,1,15.13,15.13,0,0,1,2,1.16q-.86,3.51-3,9.65t-4.77,13.3q-2.65,7.14-5.61,14.62t-5.62,13.51H620.62c-.56-1.48-1.32-3.66-2.27-6.52s-2-6-3.13-9.37S613,51,611.88,47.42s-2.1-6.84-3-9.8q-1.38,4.44-3,9.8t-3.28,10.44q-1.65,5.07-3,9.37c-.92,2.86-1.66,5-2.23,6.52Z"/><path class="cls-1" d="M217.19,109.39h-3.73v-23h13v3.18h-9.25v7.2h8.67v3.19h-8.67Z"/><path class="cls-1" d="M230,87.36a2,2,0,0,1,.55-1.52,2.45,2.45,0,0,1,3.07,0,2.37,2.37,0,0,1,0,3,2.42,2.42,0,0,1-3.07,0A2,2,0,0,1,230,87.36Zm3.92,22h-3.7V92h3.7Z"/><path class="cls-1" d="M254.53,109.39h-3.71V98.68a4.67,4.67,0,0,0-.81-3,3.14,3.14,0,0,0-2.58-1A4.1,4.1,0,0,0,244,96.07c-.73.92-1.09,2.47-1.09,4.65v8.67h-3.7V92h2.9l.52,2.28h.19a5.12,5.12,0,0,1,2.23-1.92,7.55,7.55,0,0,1,3.22-.68q6.25,0,6.26,6.38Z"/><path class="cls-1" d="M270.58,109.39l-.74-2.42h-.13a7.16,7.16,0,0,1-2.53,2.16,8.13,8.13,0,0,1-3.28.58,5.57,5.57,0,0,1-4-1.39,5.18,5.18,0,0,1-1.44-3.92,4.6,4.6,0,0,1,2-4.06c1.33-.92,3.37-1.41,6.1-1.5l3-.09v-.93a3.53,3.53,0,0,0-.78-2.5,3.17,3.17,0,0,0-2.41-.82,8.42,8.42,0,0,0-2.57.39,18.09,18.09,0,0,0-2.36.93l-1.2-2.65a13.26,13.26,0,0,1,3.1-1.12,14.22,14.22,0,0,1,3.18-.39,7.57,7.57,0,0,1,5,1.45,5.67,5.67,0,0,1,1.69,4.55v11.73Zm-5.51-2.52a4.57,4.57,0,0,0,3.23-1.12,4.11,4.11,0,0,0,1.22-3.16v-1.51l-2.23.09a7.75,7.75,0,0,0-3.81.88,2.65,2.65,0,0,0-1.19,2.38,2.29,2.29,0,0,0,.7,1.8A2.94,2.94,0,0,0,265.07,106.87Z"/><path class="cls-1" d="M293.71,109.39H290V98.68a4.67,4.67,0,0,0-.81-3,3.14,3.14,0,0,0-2.58-1,4.11,4.11,0,0,0-3.43,1.38q-1.08,1.38-1.08,4.65v8.67h-3.7V92h2.89l.52,2.28H282a5.15,5.15,0,0,1,2.24-1.92,7.47,7.47,0,0,1,3.21-.68q6.27,0,6.27,6.38Z"/><path class="cls-1" d="M305.88,109.71a7.62,7.62,0,0,1-6-2.31q-2.06-2.31-2.06-6.62T300,94a8,8,0,0,1,6.21-2.36,11.52,11.52,0,0,1,5,1l-1.11,3a11.21,11.21,0,0,0-3.88-.91q-4.51,0-4.52,6a7.19,7.19,0,0,0,1.13,4.4,3.9,3.9,0,0,0,3.3,1.47,9.46,9.46,0,0,0,4.68-1.23v3.23a7.15,7.15,0,0,1-2.12.83A12.51,12.51,0,0,1,305.88,109.71Z"/><path class="cls-1" d="M314.6,87.36a2,2,0,0,1,.54-1.52,2.1,2.1,0,0,1,1.55-.54,2.06,2.06,0,0,1,1.52.54,2.37,2.37,0,0,1,0,3,2.07,2.07,0,0,1-1.52.55,2.11,2.11,0,0,1-1.55-.55A2,2,0,0,1,314.6,87.36Zm3.92,22h-3.7V92h3.7Z"/><path class="cls-1" d="M339.13,109.39h-3.72V98.68a4.67,4.67,0,0,0-.81-3,3.13,3.13,0,0,0-2.57-1,4.08,4.08,0,0,0-3.43,1.38c-.73.92-1.09,2.47-1.09,4.65v8.67h-3.7V92h2.9l.52,2.28h.18a5.15,5.15,0,0,1,2.24-1.92,7.54,7.54,0,0,1,3.21-.68q6.27,0,6.27,6.38Z"/><path class="cls-1" d="M359,92v2l-3,.55a5,5,0,0,1,.67,1.35,5.36,5.36,0,0,1,.27,1.7,5.21,5.21,0,0,1-1.86,4.24,7.75,7.75,0,0,1-5.11,1.54,8.84,8.84,0,0,1-1.52-.12,2.09,2.09,0,0,0-1.19,1.73,1,1,0,0,0,.56.9,5,5,0,0,0,2.05.29h3a6.76,6.76,0,0,1,4.38,1.23,4.34,4.34,0,0,1,1.49,3.54,5.14,5.14,0,0,1-2.44,4.57c-1.62,1.07-4,1.61-7.05,1.61a9.73,9.73,0,0,1-5.43-1.26,4.08,4.08,0,0,1-1.88-3.59,3.81,3.81,0,0,1,1-2.7,5.41,5.41,0,0,1,2.84-1.52,2.79,2.79,0,0,1-1.22-1,2.55,2.55,0,0,1-.48-1.47,2.51,2.51,0,0,1,.55-1.65,6.33,6.33,0,0,1,1.64-1.34,4.86,4.86,0,0,1-2.2-1.9,6.19,6.19,0,0,1,.95-7.47,7.5,7.5,0,0,1,5.09-1.56,14.19,14.19,0,0,1,1.55.1A8.65,8.65,0,0,1,353,92ZM345.3,112.1a2,2,0,0,0,1.08,1.84,5.93,5.93,0,0,0,3,.65,9.1,9.1,0,0,0,4.5-.87,2.59,2.59,0,0,0,1.48-2.3,1.72,1.72,0,0,0-.81-1.61,6.49,6.49,0,0,0-3-.48h-2.81a3.9,3.9,0,0,0-2.52.75A2.42,2.42,0,0,0,345.3,112.1Zm1.59-14.49a3.49,3.49,0,0,0,.84,2.52,3.18,3.18,0,0,0,2.42.88q3.21,0,3.21-3.43a3.91,3.91,0,0,0-.79-2.62,3,3,0,0,0-2.42-.92,3.1,3.1,0,0,0-2.43.91A3.85,3.85,0,0,0,346.89,97.61Z"/><path class="cls-1" d="M385.26,109.39,383,103h-8.8l-2.25,6.39h-4l8.61-23.11h4.1l8.61,23.11ZM382,99.75l-2.16-6.26c-.16-.42-.37-1.08-.65-2s-.47-1.56-.58-2a34.36,34.36,0,0,1-1.24,4.24l-2.08,6Z"/><path class="cls-1" d="M395.6,109.39h-3.7V84.89h3.7Z"/><path class="cls-1" d="M404.59,109.39h-3.7V84.89h3.7Z"/><path class="cls-1" d="M428.45,89.27a6.19,6.19,0,0,0-5.1,2.3,9.81,9.81,0,0,0-1.86,6.34c0,2.83.59,5,1.78,6.41a6.33,6.33,0,0,0,5.18,2.17,13.19,13.19,0,0,0,2.83-.29q1.37-.28,2.85-.75v3.23a17.33,17.33,0,0,1-6.14,1c-3.37,0-6-1-7.76-3.07s-2.71-5-2.71-8.76a14.23,14.23,0,0,1,1.31-6.28,9.42,9.42,0,0,1,3.81-4.13A11.54,11.54,0,0,1,428.48,86,14.61,14.61,0,0,1,435,87.52l-1.36,3.13a20,20,0,0,0-2.46-1A8.86,8.86,0,0,0,428.45,89.27Z"/><path class="cls-1" d="M447.53,91.66a8.54,8.54,0,0,1,1.84.16L449,95.27a6.82,6.82,0,0,0-1.64-.19,4.73,4.73,0,0,0-3.6,1.45,5.26,5.26,0,0,0-1.37,3.76v9.1h-3.7V92h2.89l.49,3.07h.19a6.83,6.83,0,0,1,2.26-2.47A5.37,5.37,0,0,1,447.53,91.66Z"/><path class="cls-1" d="M460.2,109.71a8.43,8.43,0,0,1-6.35-2.37,9,9,0,0,1-2.29-6.53,9.88,9.88,0,0,1,2.13-6.71,7.35,7.35,0,0,1,5.84-2.44,7.16,7.16,0,0,1,5.44,2.1,8,8,0,0,1,2,5.76v2h-11.6a5.72,5.72,0,0,0,1.37,3.9,4.8,4.8,0,0,0,3.64,1.36,13.75,13.75,0,0,0,2.87-.29,15.59,15.59,0,0,0,2.86-1v3a11.2,11.2,0,0,1-2.74.92A16.73,16.73,0,0,1,460.2,109.71Zm-.67-15.25a3.74,3.74,0,0,0-2.83,1.12,5.35,5.35,0,0,0-1.27,3.26h7.91a4.78,4.78,0,0,0-1-3.26A3.56,3.56,0,0,0,459.53,94.46Z"/><path class="cls-1" d="M477.05,109.71a6.07,6.07,0,0,1-5.09-2.37,10.64,10.64,0,0,1-1.82-6.62A10.6,10.6,0,0,1,472,94.05a6.12,6.12,0,0,1,5.12-2.39,6,6,0,0,1,5.23,2.54h.19a22.06,22.06,0,0,1-.27-3V84.89H486v24.5h-2.9l-.65-2.28h-.17A5.92,5.92,0,0,1,477.05,109.71Zm1-3a4,4,0,0,0,3.32-1.28,6.68,6.68,0,0,0,1.07-4.16v-.52c0-2.2-.35-3.76-1.07-4.68A4,4,0,0,0,478,94.69a3.4,3.4,0,0,0-3,1.58,8.13,8.13,0,0,0-1.05,4.51,7.9,7.9,0,0,0,1,4.41A3.44,3.44,0,0,0,478,106.71Z"/><path class="cls-1" d="M491.05,87.36a2,2,0,0,1,.54-1.52,2.1,2.1,0,0,1,1.55-.54,2.06,2.06,0,0,1,1.52.54,2.37,2.37,0,0,1,0,3,2.07,2.07,0,0,1-1.52.55,2.11,2.11,0,0,1-1.55-.55A2,2,0,0,1,491.05,87.36Zm3.92,22h-3.7V92H495Z"/><path class="cls-1" d="M506.74,106.71a9.06,9.06,0,0,0,2.71-.42v2.79a7.91,7.91,0,0,1-1.58.44,11,11,0,0,1-2,.19c-3.5,0-5.26-1.85-5.26-5.55V94.78h-2.37V93.14l2.55-1.35L502,88.1h2.28V92h5v2.8h-5v9.32a2.62,2.62,0,0,0,.67,2A2.44,2.44,0,0,0,506.74,106.71Z"/><path class="cls-1" d="M529.65,109.39h-3.76V89.6h-6.77V86.37h17.3V89.6h-6.77Z"/><path class="cls-1" d="M536.91,92h4l3.54,9.87a18,18,0,0,1,1.07,4h.13a16.34,16.34,0,0,1,.52-2.11q.38-1.23,4-11.73h4l-7.45,19.73q-2,5.43-6.77,5.43a10.49,10.49,0,0,1-2.39-.27v-2.93a8.37,8.37,0,0,0,1.9.19c1.79,0,3-1,3.77-3.1l.64-1.64Z"/><path class="cls-1" d="M565.68,109.71a6.12,6.12,0,0,1-5.14-2.38h-.22c.15,1.47.22,2.36.22,2.67v7.14h-3.7V92h3c.09.32.26,1.1.52,2.33h.19a5.8,5.8,0,0,1,5.2-2.65A6.07,6.07,0,0,1,570.82,94a10.69,10.69,0,0,1,1.81,6.63,10.59,10.59,0,0,1-1.85,6.66A6.07,6.07,0,0,1,565.68,109.71Zm-.9-15A3.84,3.84,0,0,0,561.56,96a6.65,6.65,0,0,0-1,4.12v.55a8.18,8.18,0,0,0,1,4.61,3.74,3.74,0,0,0,3.29,1.42,3.33,3.33,0,0,0,3-1.57,8.17,8.17,0,0,0,1-4.49,7.82,7.82,0,0,0-1-4.43A3.45,3.45,0,0,0,564.78,94.69Z"/><path class="cls-1" d="M584.54,109.71a8.4,8.4,0,0,1-6.35-2.37,9,9,0,0,1-2.3-6.53A9.88,9.88,0,0,1,578,94.1a7.36,7.36,0,0,1,5.84-2.44,7.16,7.16,0,0,1,5.45,2.1,8,8,0,0,1,2,5.76v2H579.7a5.77,5.77,0,0,0,1.37,3.9,4.83,4.83,0,0,0,3.64,1.36,13.61,13.61,0,0,0,2.87-.29,15.59,15.59,0,0,0,2.86-1v3a10.92,10.92,0,0,1-2.74.92A16.62,16.62,0,0,1,584.54,109.71Zm-.68-15.25A3.76,3.76,0,0,0,581,95.58a5.35,5.35,0,0,0-1.26,3.26h7.9a4.78,4.78,0,0,0-1-3.26A3.55,3.55,0,0,0,583.86,94.46Z"/><path class="cls-1" d="M607.21,104.43a4.54,4.54,0,0,1-1.86,3.91,8.88,8.88,0,0,1-5.32,1.37,12.62,12.62,0,0,1-5.59-1.06v-3.2a13.66,13.66,0,0,0,5.72,1.42c2.27,0,3.41-.69,3.41-2.06a1.59,1.59,0,0,0-.38-1.1,4.36,4.36,0,0,0-1.24-.92,22.74,22.74,0,0,0-2.41-1.07,11.06,11.06,0,0,1-4.07-2.33,4.28,4.28,0,0,1-1.06-3,4,4,0,0,1,1.8-3.47,8.52,8.52,0,0,1,4.91-1.24,13.92,13.92,0,0,1,5.81,1.25l-1.2,2.78A13,13,0,0,0,601,94.53c-2,0-2.93.55-2.93,1.67a1.69,1.69,0,0,0,.77,1.38,16.34,16.34,0,0,0,3.33,1.56,15.65,15.65,0,0,1,3.13,1.53,4.56,4.56,0,0,1,1.45,1.6A4.65,4.65,0,0,1,607.21,104.43Z"/></svg>